<mxfile host="app.diagrams.net" modified="2024-02-28T04:52:56.097Z" agent="Mozilla/5.0 (Windows NT 10.0; Win64; x64) AppleWebKit/537.36 (KHTML, like Gecko) Chrome/122.0.0.0 Safari/537.36" etag="twMfq05kgTsisuHuicq0" version="23.0.2" type="github">
  <diagram name="Page-1" id="Dp8okChv-5voVnmQaSJU">
    <mxGraphModel dx="1434" dy="738" grid="1" gridSize="10" guides="1" tooltips="1" connect="1" arrows="1" fold="1" page="1" pageScale="1" pageWidth="850" pageHeight="1100" math="0" shadow="0">
      <root>
        <mxCell id="0" />
        <mxCell id="1" parent="0" />
        <mxCell id="jkNp6xLJFh_fRu0MHAx8-1" value="Clip on / gelang notifikasi" style="rounded=0;whiteSpace=wrap;html=1;" vertex="1" parent="1">
          <mxGeometry x="190" y="260" width="120" height="60" as="geometry" />
        </mxCell>
        <mxCell id="jkNp6xLJFh_fRu0MHAx8-2" value="MAIN DEVICE" style="rounded=0;whiteSpace=wrap;html=1;" vertex="1" parent="1">
          <mxGeometry x="425" y="260" width="120" height="60" as="geometry" />
        </mxCell>
        <mxCell id="jkNp6xLJFh_fRu0MHAx8-3" value="ALARM&lt;br&gt;" style="rounded=0;whiteSpace=wrap;html=1;" vertex="1" parent="1">
          <mxGeometry x="425" y="450" width="120" height="60" as="geometry" />
        </mxCell>
        <mxCell id="jkNp6xLJFh_fRu0MHAx8-4" value="" style="shape=flexArrow;endArrow=classic;startArrow=classic;html=1;rounded=0;entryX=-0.067;entryY=0.567;entryDx=0;entryDy=0;entryPerimeter=0;exitX=1.075;exitY=0.6;exitDx=0;exitDy=0;exitPerimeter=0;" edge="1" parent="1" source="jkNp6xLJFh_fRu0MHAx8-1" target="jkNp6xLJFh_fRu0MHAx8-2">
          <mxGeometry width="100" height="100" relative="1" as="geometry">
            <mxPoint x="300" y="360" as="sourcePoint" />
            <mxPoint x="400" y="260" as="targetPoint" />
          </mxGeometry>
        </mxCell>
        <mxCell id="jkNp6xLJFh_fRu0MHAx8-5" value="" style="shape=flexArrow;endArrow=classic;html=1;rounded=0;exitX=0.5;exitY=1;exitDx=0;exitDy=0;entryX=0.5;entryY=0;entryDx=0;entryDy=0;" edge="1" parent="1" source="jkNp6xLJFh_fRu0MHAx8-2" target="jkNp6xLJFh_fRu0MHAx8-3">
          <mxGeometry width="50" height="50" relative="1" as="geometry">
            <mxPoint x="150" y="430" as="sourcePoint" />
            <mxPoint x="200" y="380" as="targetPoint" />
          </mxGeometry>
        </mxCell>
        <mxCell id="jkNp6xLJFh_fRu0MHAx8-7" value="gelang notif" style="swimlane;whiteSpace=wrap;html=1;" vertex="1" parent="1">
          <mxGeometry x="10" y="340" width="200" height="200" as="geometry">
            <mxRectangle x="10" y="340" width="110" height="30" as="alternateBounds" />
          </mxGeometry>
        </mxCell>
        <mxCell id="jkNp6xLJFh_fRu0MHAx8-8" value="jarak maskimal 200 m" style="text;html=1;align=center;verticalAlign=middle;resizable=0;points=[];autosize=1;strokeColor=none;fillColor=none;" vertex="1" parent="jkNp6xLJFh_fRu0MHAx8-7">
          <mxGeometry x="30" y="30" width="140" height="30" as="geometry" />
        </mxCell>
        <mxCell id="jkNp6xLJFh_fRu0MHAx8-9" value="bisa di charge" style="text;html=1;align=center;verticalAlign=middle;resizable=0;points=[];autosize=1;strokeColor=none;fillColor=none;" vertex="1" parent="jkNp6xLJFh_fRu0MHAx8-7">
          <mxGeometry x="50" y="60" width="100" height="30" as="geometry" />
        </mxCell>
        <mxCell id="jkNp6xLJFh_fRu0MHAx8-10" value="tidak&amp;nbsp;boleh pakai simcard" style="text;html=1;align=center;verticalAlign=middle;resizable=0;points=[];autosize=1;strokeColor=none;fillColor=none;" vertex="1" parent="jkNp6xLJFh_fRu0MHAx8-7">
          <mxGeometry x="20" y="90" width="160" height="30" as="geometry" />
        </mxCell>
        <mxCell id="jkNp6xLJFh_fRu0MHAx8-11" value="bisa pakai Lora" style="text;html=1;align=center;verticalAlign=middle;resizable=0;points=[];autosize=1;strokeColor=none;fillColor=none;" vertex="1" parent="jkNp6xLJFh_fRu0MHAx8-7">
          <mxGeometry x="50" y="130" width="100" height="30" as="geometry" />
        </mxCell>
        <mxCell id="jkNp6xLJFh_fRu0MHAx8-12" value="MAIN DEVICE" style="swimlane;whiteSpace=wrap;html=1;" vertex="1" parent="1">
          <mxGeometry x="640" y="50" width="205" height="200" as="geometry">
            <mxRectangle x="10" y="340" width="110" height="30" as="alternateBounds" />
          </mxGeometry>
        </mxCell>
        <mxCell id="jkNp6xLJFh_fRu0MHAx8-13" value="Desain dari mereka" style="text;html=1;align=center;verticalAlign=middle;resizable=0;points=[];autosize=1;strokeColor=none;fillColor=none;" vertex="1" parent="jkNp6xLJFh_fRu0MHAx8-12">
          <mxGeometry x="35" y="30" width="130" height="30" as="geometry" />
        </mxCell>
        <mxCell id="jkNp6xLJFh_fRu0MHAx8-14" value="Button dipecet kirim notif ke gelang&amp;nbsp;&lt;br&gt;dan telegram" style="text;html=1;align=center;verticalAlign=middle;resizable=0;points=[];autosize=1;strokeColor=none;fillColor=none;" vertex="1" parent="jkNp6xLJFh_fRu0MHAx8-12">
          <mxGeometry x="-5" y="55" width="210" height="40" as="geometry" />
        </mxCell>
        <mxCell id="jkNp6xLJFh_fRu0MHAx8-15" value="pakai simcard oke" style="text;html=1;align=center;verticalAlign=middle;resizable=0;points=[];autosize=1;strokeColor=none;fillColor=none;" vertex="1" parent="jkNp6xLJFh_fRu0MHAx8-12">
          <mxGeometry x="40" y="90" width="120" height="30" as="geometry" />
        </mxCell>
        <mxCell id="jkNp6xLJFh_fRu0MHAx8-16" value="tidak harus rasp, bisa esp" style="text;html=1;align=center;verticalAlign=middle;resizable=0;points=[];autosize=1;strokeColor=none;fillColor=none;" vertex="1" parent="jkNp6xLJFh_fRu0MHAx8-12">
          <mxGeometry x="20" y="120" width="160" height="30" as="geometry" />
        </mxCell>
        <mxCell id="jkNp6xLJFh_fRu0MHAx8-17" value="ada biaya prototipe dari mereka" style="rounded=0;whiteSpace=wrap;html=1;" vertex="1" parent="1">
          <mxGeometry x="30" y="30" width="120" height="60" as="geometry" />
        </mxCell>
        <mxCell id="jkNp6xLJFh_fRu0MHAx8-18" value="alarm" style="swimlane;whiteSpace=wrap;html=1;" vertex="1" parent="1">
          <mxGeometry x="610" y="450" width="240" height="200" as="geometry">
            <mxRectangle x="10" y="340" width="110" height="30" as="alternateBounds" />
          </mxGeometry>
        </mxCell>
        <mxCell id="jkNp6xLJFh_fRu0MHAx8-19" value="alarm berjarak 30 meter dari main device" style="text;html=1;align=center;verticalAlign=middle;resizable=0;points=[];autosize=1;strokeColor=none;fillColor=none;" vertex="1" parent="jkNp6xLJFh_fRu0MHAx8-18">
          <mxGeometry y="30" width="240" height="30" as="geometry" />
        </mxCell>
        <mxCell id="jkNp6xLJFh_fRu0MHAx8-20" value="wireles, tidak pakai kabel dari main board" style="text;html=1;align=center;verticalAlign=middle;resizable=0;points=[];autosize=1;strokeColor=none;fillColor=none;" vertex="1" parent="jkNp6xLJFh_fRu0MHAx8-18">
          <mxGeometry y="60" width="240" height="30" as="geometry" />
        </mxCell>
      </root>
    </mxGraphModel>
  </diagram>
</mxfile>
